<svg width="28" height="26" viewBox="0 0 28 26" fill="none" xmlns="http://www.w3.org/2000/svg">
<path d="M7.60156 1C7.46867 1.73953 7.39941 2.50151 7.39941 3.2793C7.39962 10.348 13.1299 16.0781 20.1982 16.0781C22.4467 16.0781 24.5583 15.4959 26.3945 14.4775C25.3199 20.4595 20.0898 24.999 13.7988 24.999C6.73031 24.999 1 19.2681 1 12.1992C1.00012 7.37913 3.66535 3.18295 7.60156 1Z" fill="#F8FAFB"/>
<path d="M7.60156 1L8.5858 1.17687C8.65409 0.79685 8.4975 0.411469 8.18351 0.186775C7.86952 -0.0379189 7.45423 -0.0617768 7.11657 0.125481L7.60156 1ZM7.39941 3.2793H6.39941V3.27933L7.39941 3.2793ZM20.1982 16.0781V17.0781H20.1983L20.1982 16.0781ZM26.3945 14.4775L27.3788 14.6543C27.447 14.2743 27.2904 13.889 26.9765 13.6643C26.6625 13.4396 26.2472 13.4158 25.9095 13.603L26.3945 14.4775ZM13.7988 24.999V25.999H13.7988L13.7988 24.999ZM1 12.1992L0 12.1992V12.1992H1ZM7.60156 1L6.61733 0.823131C6.47397 1.6209 6.39941 2.44206 6.39941 3.2793H7.39941H8.39941C8.39941 2.56095 8.46337 1.85816 8.5858 1.17687L7.60156 1ZM7.39941 3.2793L6.39941 3.27933C6.39963 10.9003 12.5776 17.0781 20.1982 17.0781V16.0781V15.0781C13.6821 15.0781 8.3996 9.79574 8.39941 3.27927L7.39941 3.2793ZM20.1982 16.0781L20.1983 17.0781C22.6215 17.0781 24.8994 16.4502 26.8795 15.3521L26.3945 14.4775L25.9095 13.603C24.2171 14.5416 22.2719 15.0781 20.1982 15.0781L20.1982 16.0781ZM26.3945 14.4775L25.4103 14.3007C24.4197 19.8148 19.5971 23.999 13.7988 23.999L13.7988 24.999L13.7988 25.999C20.5825 25.9989 26.2201 21.1042 27.3788 14.6543L26.3945 14.4775ZM13.7988 24.999V23.999C7.28268 23.999 2 18.7159 2 12.1992H1H0C0 19.8203 6.17795 25.999 13.7988 25.999V24.999ZM1 12.1992L2 12.1992C2.00011 7.7573 4.45507 3.88847 8.08655 1.87452L7.60156 1L7.11657 0.125481C2.87563 2.47743 0.000124335 7.00095 0 12.1992L1 12.1992Z" fill="#F8FAFB"/>
</svg>
