<svg width="24" height="24" viewBox="0 0 24 24" fill="none" xmlns="http://www.w3.org/2000/svg">
<path d="M16.6667 12C16.6667 14.5773 14.5773 16.6667 12 16.6667C9.42267 16.6667 7.33333 14.5773 7.33333 12C7.33333 9.42267 9.42267 7.33333 12 7.33333C14.5773 7.33333 16.6667 9.42267 16.6667 12Z" fill="#080E3A"/>
<path d="M21.3333 12H22.5M1.5 12H2.66667M12 21.3333V22.5M12 1.5V2.66667M18.5997 18.5997L19.4246 19.4246M4.57539 4.57532L5.40035 5.40028M5.40033 18.5997L4.57537 19.4246M19.4246 4.57532L18.5997 5.40028M16.6667 12C16.6667 14.5773 14.5773 16.6667 12 16.6667C9.42267 16.6667 7.33333 14.5773 7.33333 12C7.33333 9.42267 9.42267 7.33333 12 7.33333C14.5773 7.33333 16.6667 9.42267 16.6667 12Z" stroke="#080E3A" stroke-width="3" stroke-linecap="round" stroke-linejoin="round"/>
</svg>
