<svg width="318" height="831" viewBox="0 0 318 831" fill="none" xmlns="http://www.w3.org/2000/svg">
<path d="M9.63371 781.293L32.5439 751.29L43.5439 750.79L51.5439 748.29L58.5439 745.29L64.0439 740.79C70.3119 746.913 82.5205 754.431 84.3964 761.093C86.2763 767.793 82.6284 774.694 79.0056 780.133L51.2858 821.747C41.0936 829.853 35.6908 828.864 19.4306 820.731C19.0096 820.353 18.4708 820.023 18.0773 819.605C17.794 819.328 17.5107 819.051 17.2274 818.774C4.21875 805.657 1.69802 793.163 9.62972 781.255L9.63371 781.293Z" fill="#C8ED1F"/>
<path opacity="0.53" d="M71.7411 746.646C71.2391 747.256 70.3028 747.291 69.6497 746.723C68.9966 746.156 68.8741 745.201 69.376 744.591L70.5585 745.619L71.7411 746.646ZM174.719 619.047L173.536 618.019V618.019L174.719 619.047ZM176.237 501.507L175.031 502.276V502.276L176.237 501.507ZM105.279 396.621L106.484 395.851V395.851L105.279 396.621ZM106.797 279.081L107.979 280.109V280.109L106.797 279.081ZM314.344 24.4122C314.845 23.8023 315.782 23.7679 316.435 24.3353C317.088 24.9028 317.211 25.8574 316.709 26.4673L315.526 25.4398L314.344 24.4122ZM70.5585 745.619L69.376 744.591L173.536 618.019L174.719 619.047L175.901 620.074L71.7411 746.646L70.5585 745.619ZM174.719 619.047L173.536 618.019C185.589 603.372 191.824 583.077 192.095 562.073C192.367 541.069 186.673 519.484 175.031 502.276L176.237 501.507L177.442 500.737C189.526 518.599 195.356 540.86 195.078 562.395C194.8 583.931 188.412 604.871 175.901 620.074L174.719 619.047ZM176.237 501.507L175.031 502.276L104.073 397.39L105.279 396.621L106.484 395.851L177.442 500.737L176.237 501.507ZM105.279 396.621L104.073 397.39C91.989 379.528 86.1594 357.268 86.4376 335.732C86.7158 314.197 93.1033 293.257 105.614 278.053L106.797 279.081L107.979 280.109C95.926 294.755 89.6915 315.05 89.4202 336.055C89.1489 357.059 94.8425 378.643 106.484 395.851L105.279 396.621ZM106.797 279.081L105.614 278.053L314.344 24.4122L315.526 25.4398L316.709 26.4673L107.979 280.109L106.797 279.081Z" fill="#172AAF"/>
</svg>
